<svg xmlns="http://www.w3.org/2000/svg" width="1920" height="1080"><path d="M1357,486L1395,780L1610,812Z" fill="#303e4d" stroke="#303e4d" stroke-width="1.51"/><path d="M1610,812L1697,194L1357,486Z" fill="#2b3947" stroke="#2b3947" stroke-width="1.51"/><path d="M1610,812L2011,719L1697,194Z" fill="#26343f" stroke="#26343f" stroke-width="1.51"/><path d="M1395,780L1333,1065L1610,812Z" fill="#2f3f4e" stroke="#2f3f4e" stroke-width="1.51"/><path d="M1610,812L1895,1204L2011,719Z" fill="#253540" stroke="#253540" stroke-width="1.51"/><path d="M573,899L1333,1065L1395,780Z" fill="#2a3845" stroke="#2a3845" stroke-width="1.51"/><path d="M2011,719L2054,196L1697,194Z" fill="#253542" stroke="#253542" stroke-width="1.51"/><path d="M1333,1065L1895,1204L1610,812Z" fill="#253541" stroke="#253541" stroke-width="1.51"/><path d="M1713,-230L1108,-50L1697,194Z" fill="#303f4f" stroke="#303f4f" stroke-width="1.51"/><path d="M1697,194L1108,-50L1357,486Z" fill="#334253" stroke="#334253" stroke-width="1.51"/><path d="M1357,486L573,899L1395,780Z" fill="#2d3a48" stroke="#2d3a48" stroke-width="1.51"/><path d="M2054,196L1713,-230L1697,194Z" fill="#283846" stroke="#283846" stroke-width="1.51"/><path d="M1108,-50L808,95L1357,486Z" fill="#2e3e4c" stroke="#2e3e4c" stroke-width="1.51"/><path d="M1333,1065L1547,1517L1895,1204Z" fill="#24333f" stroke="#24333f" stroke-width="1.51"/><path d="M714,1500L1547,1517L1333,1065Z" fill="#24333e" stroke="#24333e" stroke-width="1.51"/><path d="M1895,1204L2263,1157L2011,719Z" fill="#1e2e38" stroke="#1e2e38" stroke-width="1.51"/><path d="M2011,719L2518,462L2054,196Z" fill="#23323d" stroke="#23323d" stroke-width="1.51"/><path d="M2209,1817L2263,1157L1895,1204Z" fill="#1c2c35" stroke="#1c2c35" stroke-width="1.51"/><path d="M808,95L573,899L1357,486Z" fill="#293542" stroke="#293542" stroke-width="1.51"/><path d="M2263,1157L2518,462L2011,719Z" fill="#273642" stroke="#273642" stroke-width="1.51"/><path d="M2054,196L1963,-476L1713,-230Z" fill="#253643" stroke="#253643" stroke-width="1.51"/><path d="M2518,462L2360,45L2054,196Z" fill="#273946" stroke="#273946" stroke-width="1.51"/><path d="M573,899L593,1172L1333,1065Z" fill="#24333f" stroke="#24333f" stroke-width="1.51"/><path d="M1108,-50L683,-164L808,95Z" fill="#2d3b4a" stroke="#2d3b4a" stroke-width="1.51"/><path d="M1713,-230L1349,-482L1108,-50Z" fill="#314050" stroke="#314050" stroke-width="1.51"/><path d="M1708,-845L1349,-482L1713,-230Z" fill="#2e3d4c" stroke="#2e3d4c" stroke-width="1.51"/><path d="M808,95L356,703L573,899Z" fill="#2c3b4a" stroke="#2c3b4a" stroke-width="1.51"/><path d="M1349,-482L683,-164L1108,-50Z" fill="#2c3b49" stroke="#2c3b49" stroke-width="1.51"/><path d="M2518,462L2742,-248L2360,45Z" fill="#263744" stroke="#263744" stroke-width="1.51"/><path d="M2263,1157L2679,572L2518,462Z" fill="#253540" stroke="#253540" stroke-width="1.51"/><path d="M2360,45L1963,-476L2054,196Z" fill="#253642" stroke="#253642" stroke-width="1.51"/><path d="M573,899L241,1228L593,1172Z" fill="#283946" stroke="#283946" stroke-width="1.51"/><path d="M163,408L356,703L808,95Z" fill="#314151" stroke="#314151" stroke-width="1.51"/><path d="M241,1228L714,1500L593,1172Z" fill="#273845" stroke="#273845" stroke-width="1.51"/><path d="M593,1172L714,1500L1333,1065Z" fill="#22313c" stroke="#22313c" stroke-width="1.51"/><path d="M1547,1517L2209,1817L1895,1204Z" fill="#1d2d36" stroke="#1d2d36" stroke-width="1.51"/><path d="M714,1500L1433,1929L1547,1517Z" fill="#25333f" stroke="#25333f" stroke-width="1.51"/><path d="M683,-164L163,408L808,95Z" fill="#314353" stroke="#314353" stroke-width="1.51"/><path d="M356,703L241,1228L573,899Z" fill="#2d3e4c" stroke="#2d3e4c" stroke-width="1.51"/><path d="M2263,1157L2831,1282L2679,572Z" fill="#1f2f39" stroke="#1f2f39" stroke-width="1.51"/><path d="M1433,1929L2209,1817L1547,1517Z" fill="#20303a" stroke="#20303a" stroke-width="1.51"/><path d="M2360,45L2490,-433L1963,-476Z" fill="#253642" stroke="#253642" stroke-width="1.51"/><path d="M2742,-248L2490,-433L2360,45Z" fill="#253642" stroke="#253642" stroke-width="1.51"/><path d="M714,1500L444,1735L1433,1929Z" fill="#23313c" stroke="#23313c" stroke-width="1.51"/><path d="M-175,550L241,1228L356,703Z" fill="#314251" stroke="#314251" stroke-width="1.51"/><path d="M2209,1817L2831,1282L2263,1157Z" fill="#1c2c35" stroke="#1c2c35" stroke-width="1.51"/><path d="M2679,572L2742,-248L2518,462Z" fill="#283946" stroke="#283946" stroke-width="1.51"/><path d="M482,-864L333,-523L683,-164Z" fill="#314353" stroke="#314353" stroke-width="1.51"/><path d="M1963,-476L1708,-845L1713,-230Z" fill="#283946" stroke="#283946" stroke-width="1.51"/><path d="M2490,-433L1708,-845L1963,-476Z" fill="#253642" stroke="#253642" stroke-width="1.51"/><path d="M2831,1282L2742,-248L2679,572Z" fill="#222f3a" stroke="#222f3a" stroke-width="1.51"/><path d="M241,1228L444,1735L714,1500Z" fill="#283946" stroke="#283946" stroke-width="1.51"/><path d="M482,-864L683,-164L1349,-482Z" fill="#2c3c4a" stroke="#2c3c4a" stroke-width="1.51"/><path d="M683,-164L68,-167L163,408Z" fill="#304253" stroke="#304253" stroke-width="1.51"/><path d="M333,-523L68,-167L683,-164Z" fill="#314253" stroke="#314253" stroke-width="1.51"/><path d="M163,408L-175,550L356,703Z" fill="#2c3b49" stroke="#2c3b49" stroke-width="1.51"/><path d="M-399,248L-175,550L163,408Z" fill="#2f3e4e" stroke="#2f3e4e" stroke-width="1.51"/><path d="M241,1228L-93,1952L444,1735Z" fill="#263744" stroke="#263744" stroke-width="1.51"/><path d="M1708,-845L482,-864L1349,-482Z" fill="#2e3d4c" stroke="#2e3d4c" stroke-width="1.51"/><path d="M-433,-699L-414,-40L68,-167Z" fill="#2f4050" stroke="#2f4050" stroke-width="1.51"/><path d="M1433,1929L2787,1959L2209,1817Z" fill="#1c2c35" stroke="#1c2c35" stroke-width="1.51"/><path d="M2209,1817L2787,1959L2831,1282Z" fill="#1c2c35" stroke="#1c2c35" stroke-width="1.51"/><path d="M-175,550L-299,1199L241,1228Z" fill="#293947" stroke="#293947" stroke-width="1.51"/><path d="M-175,550L-524,741L-299,1199Z" fill="#304050" stroke="#304050" stroke-width="1.51"/><path d="M68,-167L-399,248L163,408Z" fill="#304252" stroke="#304252" stroke-width="1.51"/><path d="M-414,-40L-399,248L68,-167Z" fill="#2f4050" stroke="#2f4050" stroke-width="1.51"/><path d="M-433,-699L68,-167L333,-523Z" fill="#2f4050" stroke="#2f4050" stroke-width="1.51"/><path d="M-554,191L-524,741L-399,248Z" fill="#2f3f4e" stroke="#2f3f4e" stroke-width="1.51"/><path d="M-399,248L-524,741L-175,550Z" fill="#2b3a48" stroke="#2b3a48" stroke-width="1.51"/><path d="M-645,1601L-93,1952L-299,1199Z" fill="#253642" stroke="#253642" stroke-width="1.51"/><path d="M-299,1199L-93,1952L241,1228Z" fill="#253642" stroke="#253642" stroke-width="1.51"/><path d="M444,1735L-93,1952L1433,1929Z" fill="#263743" stroke="#263743" stroke-width="1.51"/><path d="M1433,1929L-93,1952L2787,1959Z" fill="#263642" stroke="#263642" stroke-width="1.51"/><path d="M-414,-40L-554,191L-399,248Z" fill="#304152" stroke="#304152" stroke-width="1.51"/><path d="M-414,-40L-893,-77L-554,191Z" fill="#2f4050" stroke="#2f4050" stroke-width="1.51"/><path d="M482,-864L-433,-699L333,-523Z" fill="#304151" stroke="#304151" stroke-width="1.51"/><path d="M-930,1481L-645,1601L-299,1199Z" fill="#253642" stroke="#253642" stroke-width="1.51"/><path d="M-930,1481L-299,1199L-524,741Z" fill="#253642" stroke="#253642" stroke-width="1.51"/><path d="M-554,191L-893,-77L-524,741Z" fill="#314353" stroke="#314353" stroke-width="1.51"/><path d="M-930,-551L-893,-77L-414,-40Z" fill="#2f4050" stroke="#2f4050" stroke-width="1.51"/><path d="M-645,1601L-930,1481L-93,1952Z" fill="#253642" stroke="#253642" stroke-width="1.51"/><path d="M-893,-77L-930,1481L-524,741Z" fill="#2f3e4d" stroke="#2f3e4d" stroke-width="1.51"/><path d="M-893,-77L-930,-551L-930,1481Z" fill="#314353" stroke="#314353" stroke-width="1.51"/><path d="M-433,-699L-930,-551L-414,-40Z" fill="#2f4050" stroke="#2f4050" stroke-width="1.51"/></svg>